<svg xmlns="http://www.w3.org/2000/svg" width="1500" height="1500" viewBox="0 0 1500 1500" fill="none"><metadata><rdf:RDF xmlns:rdf="http://www.w3.org/1999/02/22-rdf-syntax-ns#" xmlns:dc="http://purl.org/dc/elements/1.1/"><rdf:Description><dc:creator>RealFaviconGenerator</dc:creator><dc:source>https://realfavicongenerator.net</dc:source></rdf:Description></rdf:RDF></metadata><path d="M966.201 909.488L1216 1158.71C989.754 1384.43 622.934 1384.43 396.688 1158.71C170.437 932.985 170.437 567.015 396.688 341.292C622.934 115.569 989.754 115.569 1216 341.292L966.196 590.519C964.911 589.176 963.607 587.843 962.284 586.523C871.784 496.234 725.054 496.234 634.558 586.523C544.058 676.812 544.058 823.201 634.558 913.49C725.054 1003.78 871.784 1003.78 962.284 913.49C963.607 912.168 964.916 910.834 966.201 909.488Z" fill="#1976D2"></path><path d="M966.201 909.488L1216 1158.71C989.754 1384.43 622.934 1384.43 396.688 1158.71C170.437 932.985 170.437 567.015 396.688 341.292C622.934 115.569 989.754 115.569 1216 341.292L966.196 590.519C964.911 589.176 963.607 587.843 962.284 586.523C871.784 496.234 725.054 496.234 634.558 586.523C544.058 676.812 544.058 823.201 634.558 913.49C725.054 1003.78 871.784 1003.78 962.284 913.49C963.607 912.168 964.916 910.834 966.201 909.488Z" fill="url(#paint0_linear)"></path><defs>
<linearGradient id="paint0_linear" x1="1216" y1="341.292" x2="398.587" y2="1160.6" gradientUnits="userSpaceOnUse">
<stop stop-color="#00E676"></stop>
<stop offset="1" stop-color="white" stop-opacity="0"></stop>
</linearGradient>
</defs></svg>