<svg width="154" height="49" viewBox="0 0 154 49" fill="none" xmlns="http://www.w3.org/2000/svg">
<path fill-rule="evenodd" clip-rule="evenodd" d="M28.3169 29.8867L35.541 37.1269C28.998 43.6845 18.3896 43.6845 11.8467 37.1269C5.30322 30.5703 5.30322 19.9384 11.8467 13.3808C18.3896 6.82321 28.998 6.82321 35.541 13.3808L28.3169 20.6211C28.2798 20.582 28.2422 20.5429 28.2041 20.5049C25.5869 17.8818 21.3433 17.8818 18.7261 20.5049C16.1089 23.1279 16.1089 27.3799 18.7261 30.0029C21.3433 32.6259 25.5869 32.6259 28.2041 30.0029C28.2422 29.9648 28.2798 29.9257 28.3169 29.8867Z" fill="#1976D2"/>
<path fill-rule="evenodd" clip-rule="evenodd" d="M28.3169 29.8867L35.541 37.1269C28.998 43.6845 18.3896 43.6845 11.8467 37.1269C5.30322 30.5703 5.30322 19.9384 11.8467 13.3808C18.3896 6.82321 28.998 6.82321 35.541 13.3808L28.3169 20.6211C28.2798 20.582 28.2422 20.5429 28.2041 20.5049C25.5869 17.8818 21.3433 17.8818 18.7261 20.5049C16.1089 23.1279 16.1089 27.3799 18.7261 30.0029C21.3433 32.6259 25.5869 32.6259 28.2041 30.0029C28.2422 29.9648 28.2798 29.9257 28.3169 29.8867Z" fill="url(#paint0_linear)"/>
<path d="M53.5683 20.712C53.2254 20.2945 52.8005 19.974 52.2935 19.7503C51.8015 19.5267 51.2275 19.4149 50.5715 19.4149C49.9155 19.4149 49.3042 19.5416 48.7377 19.7951C48.186 20.0485 47.7015 20.4063 47.284 20.8685C46.8815 21.3158 46.5609 21.8525 46.3224 22.4787C46.0987 23.1049 45.9869 23.7833 45.9869 24.5138C45.9869 25.2593 46.0987 25.9451 46.3224 26.5713C46.5609 27.1826 46.8815 27.7193 47.284 28.1815C47.6866 28.6288 48.1562 28.9792 48.693 29.2326C49.2446 29.4861 49.8335 29.6128 50.4597 29.6128C51.1754 29.6128 51.809 29.4637 52.3606 29.1655C52.9123 28.8674 53.367 28.4499 53.7248 27.9132L56.6321 30.0825C55.9612 31.0217 55.1114 31.715 54.0827 32.1623C53.0539 32.6096 51.9954 32.8332 50.907 32.8332C49.6695 32.8332 48.529 32.6394 47.4853 32.2518C46.4417 31.8641 45.5397 31.3125 44.7793 30.5968C44.0189 29.8663 43.4225 28.9866 42.9902 27.9579C42.5727 26.9291 42.364 25.7811 42.364 24.5138C42.364 23.2466 42.5727 22.0985 42.9902 21.0698C43.4225 20.0411 44.0189 19.1689 44.7793 18.4532C45.5397 17.7227 46.4417 17.1636 47.4853 16.7759C48.529 16.3883 49.6695 16.1945 50.907 16.1945C51.3543 16.1945 51.8165 16.2392 52.2935 16.3287C52.7856 16.4032 53.2627 16.5299 53.7248 16.7088C54.2019 16.8878 54.6567 17.1263 55.089 17.4245C55.5214 17.7227 55.909 18.088 56.252 18.5203L53.5683 20.712ZM58.0985 21.5618H61.4531V23.3062H61.4979C61.8557 22.6353 62.2806 22.1358 62.7726 21.8078C63.2646 21.4649 63.8833 21.2934 64.6288 21.2934C64.8226 21.2934 65.0164 21.3009 65.2103 21.3158C65.4041 21.3307 65.583 21.3605 65.747 21.4053V24.4691C65.5085 24.3946 65.2699 24.3424 65.0314 24.3126C64.8077 24.2678 64.5692 24.2455 64.3157 24.2455C63.6746 24.2455 63.1677 24.3349 62.795 24.5138C62.4222 24.6928 62.1315 24.9462 61.9228 25.2742C61.729 25.5873 61.6022 25.9675 61.5426 26.4148C61.483 26.8621 61.4531 27.3541 61.4531 27.8908V32.4307H58.0985V21.5618ZM73.9149 34.1974C73.6912 34.7789 73.4751 35.2932 73.2663 35.7405C73.0576 36.1878 72.7892 36.5605 72.4612 36.8587C72.1481 37.1718 71.7456 37.4029 71.2536 37.552C70.7616 37.716 70.113 37.798 69.3079 37.798C68.4432 37.798 67.6083 37.6638 66.8032 37.3954L67.2504 34.6447C67.7574 34.8683 68.2792 34.9801 68.8159 34.9801C69.1887 34.9801 69.4943 34.9354 69.7328 34.846C69.9714 34.7714 70.1652 34.6521 70.3143 34.4881C70.4783 34.339 70.6125 34.1527 70.7169 33.929C70.8212 33.7054 70.933 33.4445 71.0523 33.1463L71.2983 32.5201L66.5348 21.5618H70.1578L72.9532 28.7406H72.998L75.3909 21.5618H78.8349L73.9149 34.1974ZM80.1693 21.5618H83.2555V22.9931H83.3002C83.4344 22.7993 83.6058 22.6055 83.8146 22.4116C84.0382 22.2029 84.2917 22.0165 84.575 21.8525C84.8731 21.6885 85.1937 21.5544 85.5366 21.45C85.8795 21.3456 86.2448 21.2934 86.6324 21.2934C87.4375 21.2934 88.1681 21.4351 88.8241 21.7184C89.4801 21.9867 90.0392 22.3744 90.5014 22.8813C90.9785 23.3733 91.3438 23.9622 91.5972 24.648C91.8507 25.3339 91.9774 26.0868 91.9774 26.9068C91.9774 27.6672 91.8581 28.3977 91.6196 29.0984C91.3959 29.7843 91.0679 30.3955 90.6356 30.9323C90.2181 31.469 89.7037 31.9014 89.0925 32.2294C88.4812 32.5425 87.7879 32.699 87.0126 32.699C86.3119 32.699 85.6559 32.5947 85.0446 32.3859C84.4482 32.1623 83.9562 31.7896 83.5686 31.2677H83.5238V37.5296H80.1693V21.5618ZM83.2555 26.9962C83.2555 27.8162 83.4866 28.4797 83.9488 28.9866C84.4259 29.4935 85.0893 29.747 85.9391 29.747C86.789 29.747 87.445 29.4935 87.9072 28.9866C88.3843 28.4797 88.6228 27.8162 88.6228 26.9962C88.6228 26.1762 88.3843 25.5128 87.9072 25.0059C87.445 24.4989 86.789 24.2455 85.9391 24.2455C85.0893 24.2455 84.4259 24.4989 83.9488 25.0059C83.4866 25.5128 83.2555 26.1762 83.2555 26.9962ZM101.345 24.2455H98.3932V27.8684C98.3932 28.1666 98.4081 28.4424 98.4379 28.6959C98.4678 28.9344 98.5349 29.1432 98.6392 29.3221C98.7436 29.501 98.9001 29.6426 99.1089 29.747C99.3325 29.8365 99.6232 29.8812 99.9811 29.8812C100.16 29.8812 100.391 29.8663 100.674 29.8365C100.973 29.7917 101.196 29.7023 101.345 29.5681V32.3636C100.973 32.4978 100.585 32.5872 100.182 32.6319C99.7798 32.6767 99.3847 32.699 98.997 32.699C98.4305 32.699 97.9087 32.6394 97.4316 32.5201C96.9545 32.4008 96.537 32.2145 96.1792 31.961C95.8214 31.6927 95.5381 31.3497 95.3294 30.9323C95.1355 30.5148 95.0386 30.0079 95.0386 29.4115V24.2455H92.8917V21.5618H95.0386V18.3414H98.3932V21.5618H101.345V24.2455ZM104.056 16.597H114.679V19.8174H107.545V23.0378H114.142V26.2582H107.545V32.4307H104.056V16.597ZM116.351 26.9962C116.351 26.1315 116.508 25.3488 116.821 24.648C117.134 23.9473 117.559 23.3509 118.096 22.8589C118.647 22.352 119.289 21.9644 120.019 21.696C120.765 21.4276 121.555 21.2934 122.39 21.2934C123.225 21.2934 124.007 21.4276 124.738 21.696C125.483 21.9644 126.124 22.352 126.661 22.8589C127.213 23.3509 127.645 23.9473 127.958 24.648C128.271 25.3488 128.428 26.1315 128.428 26.9962C128.428 27.861 128.271 28.6437 127.958 29.3444C127.645 30.0452 127.213 30.649 126.661 31.1559C126.124 31.6479 125.483 32.0281 124.738 32.2965C124.007 32.5648 123.225 32.699 122.39 32.699C121.555 32.699 120.765 32.5648 120.019 32.2965C119.289 32.0281 118.647 31.6479 118.096 31.1559C117.559 30.649 117.134 30.0452 116.821 29.3444C116.508 28.6437 116.351 27.861 116.351 26.9962ZM119.706 26.9962C119.706 27.8162 119.937 28.4797 120.399 28.9866C120.876 29.4935 121.54 29.747 122.39 29.747C123.24 29.747 123.896 29.4935 124.358 28.9866C124.835 28.4797 125.073 27.8162 125.073 26.9962C125.073 26.1762 124.835 25.5128 124.358 25.0059C123.896 24.4989 123.24 24.2455 122.39 24.2455C121.54 24.2455 120.876 24.4989 120.399 25.0059C119.937 25.5128 119.706 26.1762 119.706 26.9962ZM130.449 15.5236H133.803V32.4307H130.449V15.5236ZM136.258 21.5618H139.612V32.4307H136.258V21.5618ZM135.99 18.1401C135.99 17.6034 136.176 17.1487 136.549 16.7759C136.936 16.3883 137.398 16.1945 137.935 16.1945C138.472 16.1945 138.927 16.3883 139.299 16.7759C139.687 17.1487 139.881 17.6034 139.881 18.1401C139.881 18.6769 139.687 19.1391 139.299 19.5267C138.927 19.8994 138.472 20.0858 137.935 20.0858C137.398 20.0858 136.936 19.8994 136.549 19.5267C136.176 19.1391 135.99 18.6769 135.99 18.1401ZM141.62 26.9962C141.62 26.1315 141.777 25.3488 142.09 24.648C142.403 23.9473 142.828 23.3509 143.364 22.8589C143.916 22.352 144.557 21.9644 145.288 21.696C146.033 21.4276 146.823 21.2934 147.658 21.2934C148.493 21.2934 149.276 21.4276 150.006 21.696C150.752 21.9644 151.393 22.352 151.93 22.8589C152.481 23.3509 152.914 23.9473 153.227 24.648C153.54 25.3488 153.697 26.1315 153.697 26.9962C153.697 27.861 153.54 28.6437 153.227 29.3444C152.914 30.0452 152.481 30.649 151.93 31.1559C151.393 31.6479 150.752 32.0281 150.006 32.2965C149.276 32.5648 148.493 32.699 147.658 32.699C146.823 32.699 146.033 32.5648 145.288 32.2965C144.557 32.0281 143.916 31.6479 143.364 31.1559C142.828 30.649 142.403 30.0452 142.09 29.3444C141.777 28.6437 141.62 27.861 141.62 26.9962ZM144.975 26.9962C144.975 27.8162 145.206 28.4797 145.668 28.9866C146.145 29.4935 146.808 29.747 147.658 29.747C148.508 29.747 149.164 29.4935 149.626 28.9866C150.103 28.4797 150.342 27.8162 150.342 26.9962C150.342 26.1762 150.103 25.5128 149.626 25.0059C149.164 24.4989 148.508 24.2455 147.658 24.2455C146.808 24.2455 146.145 24.4989 145.668 25.0059C145.206 25.5128 144.975 26.1762 144.975 26.9962Z" fill="white"/>
<defs>
<linearGradient id="paint0_linear" x1="35.541" y1="13.3808" x2="11.795" y2="37.0752" gradientUnits="userSpaceOnUse">
<stop stop-color="#00E676"/>
<stop offset="1" stop-color="white" stop-opacity="0"/>
</linearGradient>
</defs>
</svg>